Coordinates
version=1
nRows=17
nColumns=33
inDegrees=yes

Units are S.I. units (second, meters, Newtons, ...)
Angles are in degrees.

endheader
time	ground_thorax_rot_x	ground_thorax_rot_y	ground_thorax_rot_z	ground_thorax_tx	ground_thorax_ty	ground_thorax_tz	clav_prot_r	clav_elev_r	scapula_abduction_r	scapula_elevation_r	scapula_upward_rot_r	scapula_winging_r	shoulder_elv_r	plane_of_elev_r	axial_rot_r	elbow_flexion_r	pro_sup_r	wrist_flex_r	wrist_dev_r	clav_prot_l	clav_elev_l	scapula_abduction_l	scapula_elevation_l	scapula_upward_rot_l	scapula_winging_l	shoulder_elv_l	plane_of_elev_l	axial_rot_l	elbow_flexion_l	pro_sup_l	wrist_flex_l	wrist_dev_l
      2.67000000	     -0.56331733	      3.17588668	     10.84372005	     -0.10238656	      1.02768230	      0.01421539	      7.25063029	     -9.61415371	     12.53330877	     -2.35942086	     -0.47526888	     -1.95980327	    -51.64041804	    -76.25555191	     91.50381936	    -70.51238354	   -145.72469706	     50.26315887	    -24.99999983	     10.88512827	     -1.87676436	    -14.54533960	    -21.21127039	    -37.81705418	     -0.77309201	     60.02960125	    -31.86281929	      1.73967262	     69.36927947	     18.15711251	     -3.47303854	    -24.99999983
      2.68000000	     -0.37269525	      3.10368364	     10.79030075	     -0.10227836	      1.02806519	      0.01445395	      7.36055305	     -9.31309213	     12.86324273	     -2.22723706	     -0.13026082	     -2.21256434	    -50.57576337	    -76.37865312	     92.83578964	    -71.43251609	   -146.97365845	     48.66202208	    -24.99999983	     10.91343690	     -2.36129187	    -14.56446405	    -20.59825877	    -37.51920862	     -0.66601310	     60.38389210	    -31.51551175	      2.33131242	     69.91722204	     16.97478342	     -0.35943551	    -24.99999983
      2.69000000	     -0.46152913	      3.13273232	     10.84567049	     -0.10204817	      1.02812539	      0.01463962	      7.40437102	     -9.32402242	     13.05038632	     -2.33423853	      0.10006977	     -2.29343389	    -50.39572406	    -76.31736207	     92.87140610	    -72.23062863	   -147.02154098	     48.72354223	    -24.99999983	     11.00402343	     -2.38857802	    -14.63371645	    -20.35079197	    -37.06296775	     -0.54710171	     60.72539860	    -30.94072008	      2.39042185	     70.23423250	     16.90159809	     -0.20621007	    -24.99999983
      2.70000000	     -0.51669079	      3.16663845	     10.82831014	     -0.10186359	      1.02826364	      0.01487149	      7.46775278	     -9.37172387	     13.30305142	     -2.50019226	      0.39493447	     -2.38509067	    -50.17635584	    -76.25270891	     92.94698611	    -73.04418801	   -147.14917904	     48.64261501	    -24.99999983	     11.11088333	     -2.46964058	    -14.72806567	    -20.02544427	    -36.55280637	     -0.41102646	     61.08520193	    -30.25500697	      2.47008010	     70.34858701	     16.77173721	      0.15414742	    -24.99999983
      2.71000000	     -0.51439887	      2.99451884	     10.77525596	     -0.10188885	      1.02835776	      0.01469741	      7.71886196	     -9.20739035	     13.93288780	     -2.52730568	      0.82487527	     -2.70797885	    -49.04764238	    -76.36347019	     94.52198788	    -73.94407485	   -148.64300868	     45.38884084	    -24.99999983	     11.04327902	     -2.44728256	    -14.52285882	    -19.84511448	    -36.12059774	     -0.42793010	     61.44171023	    -29.13260032	      3.10398142	     70.41133743	     15.12189465	      5.87625029	    -23.00791845
      2.72000000	     -0.44912416	      2.91108343	     10.90893614	     -0.10173294	      1.02819706	      0.01490607	      8.03064396	     -9.19344285	     14.30632242	     -2.37093378	      0.48844772	     -2.83663820	    -47.07107072	    -76.27851555	     95.90127130	    -75.20881496	   -148.64837063	     43.80519987	    -24.99999983	     11.02700546	     -2.99321877	    -14.51346763	    -19.27981478	    -36.04083334	     -0.37668864	     62.32784755	    -28.68265188	      3.39206044	     70.96550629	     14.89442157	      9.38189075	    -20.71574242
      2.73000000	     -0.53416699	      2.97536149	     10.83505052	     -0.10148317	      1.02847459	      0.01503287	      8.06270867	     -9.25519141	     14.59668735	     -2.62792770	      0.97002294	     -2.94506183	    -46.59245800	    -76.09795275	     96.19882722	    -75.82763773	   -148.83803390	     43.43378794	    -24.99999983	     11.14261348	     -3.15846388	    -14.62111518	    -18.82307479	    -35.42973944	     -0.21537435	     62.66840467	    -27.67240205	      3.43657524	     70.38450138	     14.86434852	      9.85126134	    -20.17408972
      2.74000000	     -0.73636281	      2.88662155	     10.85988334	     -0.10148022	      1.02805906	      0.01483104	      8.19633562	     -9.06511303	     15.10383868	     -2.69732826	      1.55865350	     -3.24201198	    -45.38041647	    -76.05607390	     97.93809728	    -76.63224925	   -149.83165971	     40.58775917	    -24.53767855	     11.28093366	     -3.07174728	    -14.78063935	    -18.66901367	    -34.94561059	     -0.07076562	     63.01529653	    -26.53786642	      3.65863431	     70.21492978	     14.07087682	     12.98971906	    -17.29257936
      2.75000000	     -0.73712986	      2.77938306	     10.95571055	     -0.10171130	      1.02813240	      0.01479390	      8.58774140	     -9.29485218	     15.65062578	     -2.78524185	      1.27635535	     -3.35276728	    -43.28534342	    -76.00918272	     99.27606320	    -77.72964659	   -150.29744243	     38.59037935	    -23.33310214	     11.50196623	     -3.67663529	    -15.17684037	    -17.98619277	    -34.75639770	      0.16793546	     63.52213927	    -25.79843319	      3.94434269	     69.77391672	     13.39630603	     15.31226086	    -15.32408320
      2.76000000	     -0.96274502	      2.85924413	     10.84768699	     -0.10140849	      1.02763394	      0.01470937	      8.54300977	     -9.16797286	     15.88830320	     -2.93909448	      1.92778790	     -3.52196643	    -42.00476633	    -75.76784858	    100.71732290	    -78.41080226	   -151.09016746	     37.04692943	    -22.55173363	     11.70786372	     -3.60805906	    -15.44772945	    -17.75148769	    -34.15025392	      0.38540557	     63.81815327	    -24.40937444	      3.94784416	     68.80187318	     12.97951764	     16.64116255	    -14.15752150
      2.77000000	     -1.07202618	      2.90099268	     10.91897996	     -0.10141923	      1.02807267	      0.01461651	      8.74719353	     -9.46610375	     16.38197995	     -3.31259551	      2.18508024	     -3.60472443	    -41.33860044	    -75.54769072	    100.83937891	    -78.81555454	   -151.31765874	     36.59384062	    -22.24547607	     11.95054879	     -4.14942897	    -15.82686576	    -16.96427011	    -33.61146479	      0.65544249	     64.13435183	    -23.54474317	      3.83960666	     67.41747929	     12.95679568	     17.03528364	    -13.65383355
      2.78000000	     -1.22549666	      2.74790631	     11.07336607	     -0.10172200	      1.02754155	      0.01433591	      9.06743796	     -9.39500160	     17.06231289	     -3.35522044	      2.45634926	     -3.91301032	    -39.33072830	    -75.42168505	    102.74722144	    -79.77054756	   -152.76429980	     32.79653907	    -19.33175534	     12.42179207	     -4.39879771	    -16.63580838	    -16.57722850	    -33.34354172	      1.07421257	     64.11401628	    -22.46149316	      4.41925033	     66.28673102	     11.66795023	     19.87701835	    -11.66042905
      2.79000000	     -1.43063887	      2.73847597	     11.15365566	     -0.10195807	      1.02735265	      0.01404726	      9.30383324	     -9.63041326	     17.42039316	     -3.51849226	      2.34295076	     -3.95716065	    -36.52761007	    -75.15814323	    104.94448301	    -80.48969242	   -153.85078522	     30.39911148	    -17.32503789	     12.94075307	     -4.79500589	    -17.54667457	    -16.10713561	    -33.20008935	      1.52008449	     64.34828679	    -21.26457468	      4.81724276	     64.76957774	     10.93522665	     21.33749931	    -10.41538169
      2.80000000	     -1.64705142	      2.79759405	     11.17784725	     -0.10191496	      1.02712542	      0.01374409	      9.31452721	     -9.68362446	     17.59812696	     -3.69314651	      2.65532847	     -4.01573656	    -33.95425542	    -74.86292487	    107.24919721	    -80.91771590	   -154.68273033	     28.35302568	    -15.53442367	     13.49503162	     -5.12358218	    -18.48450168	    -15.59400580	    -32.83177025	      2.01438613	     64.36756981	    -20.06557033	      5.13224667	     63.02732051	     10.41159073	     22.32310742	     -9.59823938
      2.81000000	     -1.88146234	      2.81486261	     11.08902350	     -0.10165521	      1.02741036	      0.01343651	      9.52522721	    -10.10243270	     18.19230165	     -4.24226634	      3.08822486	     -4.08933370	    -33.18111197	    -74.43372848	    107.41932344	    -81.00164889	   -154.85560917	     27.92713827	    -15.20164067	     13.81322535	     -5.68156133	    -18.98631787	    -14.78396824	    -32.26241552	      2.32233829	     64.69079543	    -19.21292522	      5.01370826	     61.17654431	     10.52747268	     22.49706692	     -9.19180079
      2.82000000	     -2.05116451	      2.68919638	     11.23734842	     -0.10179809	      1.02684014	      0.01296395	      9.79520846	     -9.95792660	     18.90841972	     -4.31310870	      3.59999500	     -4.44900697	    -30.98207316	    -74.06276687	    109.46305737	    -81.38664367	   -155.87012159	     24.50995040	    -11.91993125	     14.51104130	     -5.90671755	    -20.18254844	    -14.42195520	    -32.01595063	      2.92720705	     64.29517505	    -17.96359630	      5.85631876	     59.21100901	      9.78182072	     24.14156550	     -8.31539468
      2.83000000	     -2.25660428	      2.66850918	     11.30268691	     -0.10198667	      1.02664921	      0.01250231	     10.06289668	    -10.16258182	     19.38157166	     -4.50243093	      3.62301655	     -4.55722728	    -27.97780577	    -73.53184451	    111.77405211	    -81.61172535	   -156.61039339	     22.02341007	     -9.55930883	     15.28385713	     -6.41210769	    -21.52047205	    -13.89277831	    -31.96822691	      3.56925971	     64.31433356	    -16.81141959	      6.54566420	     57.22731555	      9.50750121	     25.18119526	     -7.57113879
